<svg width="800" height="600" viewBox="0 0 800 600" fill="none" xmlns="http://www.w3.org/2000/svg">
<rect width="800" height="600" fill="white"/>
<rect width="800" height="600" fill="#0A0C10"/>
<rect width="800" height="600" fill="#0A0C10"/>
<g filter="url(#filter0_d_42_4)">
<path d="M308.087 273.2V160.4H341.687V174.2H323.087V259.4H341.687V273.2H308.087Z" fill="#00D2FF"/>
</g>
<g filter="url(#filter1_d_42_4)">
<rect x="398" y="193" width="4" height="48" fill="#00FFAA"/>
</g>
<g filter="url(#filter2_d_42_4)">
<path d="M458.2 273.2V259.4H476.8V174.2H458.2V160.4H491.8V273.2H458.2Z" fill="#00D2FF"/>
</g>
<g filter="url(#filter3_d_42_4)">
<rect x="336" y="309" width="4" height="4" rx="2" fill="#00D2FF"/>
</g>
<g filter="url(#filter4_d_42_4)">
<rect x="340" y="310" width="120" height="2" fill="#00D2FF"/>
</g>
<g filter="url(#filter5_d_42_4)">
<rect x="460" y="309" width="4" height="4" rx="2" fill="#00D2FF"/>
</g>
<g filter="url(#filter6_f_42_4)">
<rect x="200" y="100" width="400" height="400" rx="200" fill="#00D2FF" fill-opacity="0.05"/>
</g>
<path d="M286.1 381H277.227V354.818H286.279C288.878 354.818 291.111 355.342 292.977 356.391C294.852 357.43 296.293 358.926 297.298 360.878C298.304 362.83 298.807 365.165 298.807 367.884C298.807 370.611 298.3 372.955 297.286 374.915C296.28 376.875 294.827 378.379 292.926 379.428C291.034 380.476 288.759 381 286.1 381ZM281.97 376.896H285.869C287.693 376.896 289.215 376.564 290.433 375.899C291.652 375.226 292.568 374.224 293.182 372.895C293.796 371.557 294.102 369.886 294.102 367.884C294.102 365.881 293.796 364.219 293.182 362.898C292.568 361.568 291.661 360.575 290.459 359.919C289.266 359.254 287.783 358.922 286.01 358.922H281.97V376.896ZM311.622 381.384C309.653 381.384 307.953 380.974 306.521 380.156C305.098 379.33 304.003 378.162 303.236 376.653C302.469 375.136 302.085 373.351 302.085 371.297C302.085 369.277 302.469 367.504 303.236 365.979C304.011 364.445 305.094 363.251 306.483 362.399C307.872 361.538 309.504 361.108 311.379 361.108C312.589 361.108 313.731 361.304 314.805 361.696C315.888 362.08 316.842 362.676 317.669 363.486C318.504 364.295 319.16 365.327 319.638 366.58C320.115 367.824 320.354 369.307 320.354 371.028V372.447H304.258V369.328H315.917C315.909 368.442 315.717 367.653 315.342 366.963C314.967 366.264 314.443 365.714 313.77 365.314C313.105 364.913 312.329 364.713 311.443 364.713C310.497 364.713 309.666 364.943 308.95 365.403C308.234 365.855 307.676 366.452 307.275 367.193C306.883 367.926 306.683 368.732 306.675 369.609V372.332C306.675 373.474 306.883 374.455 307.301 375.273C307.719 376.082 308.302 376.705 309.052 377.139C309.802 377.565 310.68 377.778 311.686 377.778C312.359 377.778 312.969 377.685 313.514 377.497C314.059 377.301 314.532 377.016 314.933 376.641C315.334 376.266 315.636 375.801 315.841 375.247L320.162 375.733C319.889 376.875 319.369 377.872 318.602 378.724C317.844 379.568 316.872 380.224 315.687 380.693C314.503 381.153 313.148 381.384 311.622 381.384ZM328.716 369.494V381H324.089V361.364H328.512V364.7H328.742C329.194 363.601 329.914 362.727 330.903 362.08C331.9 361.432 333.131 361.108 334.597 361.108C335.952 361.108 337.133 361.398 338.138 361.977C339.153 362.557 339.937 363.396 340.491 364.496C341.053 365.595 341.33 366.929 341.322 368.497V381H336.694V369.213C336.694 367.901 336.353 366.874 335.671 366.132C334.998 365.391 334.065 365.02 332.871 365.02C332.062 365.02 331.341 365.199 330.711 365.557C330.089 365.906 329.599 366.413 329.241 367.078C328.891 367.743 328.716 368.548 328.716 369.494ZM350.474 369.494V381H345.846V361.364H350.269V364.7H350.5C350.951 363.601 351.671 362.727 352.66 362.08C353.657 361.432 354.889 361.108 356.355 361.108C357.71 361.108 358.89 361.398 359.896 361.977C360.91 362.557 361.694 363.396 362.248 364.496C362.811 365.595 363.088 366.929 363.079 368.497V381H358.451V369.213C358.451 367.901 358.11 366.874 357.429 366.132C356.755 365.391 355.822 365.02 354.629 365.02C353.819 365.02 353.099 365.199 352.468 365.557C351.846 365.906 351.356 366.413 350.998 367.078C350.649 367.743 350.474 368.548 350.474 369.494ZM367.604 381V361.364H372.231V381H367.604ZM369.93 358.577C369.197 358.577 368.567 358.334 368.038 357.848C367.51 357.354 367.246 356.761 367.246 356.071C367.246 355.372 367.51 354.78 368.038 354.294C368.567 353.8 369.197 353.553 369.93 353.553C370.672 353.553 371.303 353.8 371.822 354.294C372.351 354.78 372.615 355.372 372.615 356.071C372.615 356.761 372.351 357.354 371.822 357.848C371.303 358.334 370.672 358.577 369.93 358.577ZM392.33 366.554L388.112 367.014C387.992 366.588 387.783 366.188 387.485 365.812C387.195 365.438 386.803 365.135 386.309 364.905C385.815 364.675 385.21 364.56 384.494 364.56C383.531 364.56 382.721 364.768 382.065 365.186C381.417 365.604 381.097 366.145 381.106 366.81C381.097 367.381 381.306 367.845 381.732 368.203C382.167 368.561 382.883 368.855 383.88 369.085L387.229 369.801C389.087 370.202 390.468 370.837 391.371 371.706C392.283 372.575 392.744 373.713 392.752 375.119C392.744 376.355 392.381 377.446 391.665 378.392C390.958 379.33 389.974 380.062 388.712 380.591C387.451 381.119 386.002 381.384 384.366 381.384C381.962 381.384 380.028 380.881 378.562 379.875C377.096 378.861 376.222 377.45 375.941 375.643L380.454 375.209C380.658 376.095 381.093 376.764 381.758 377.216C382.423 377.668 383.288 377.893 384.353 377.893C385.452 377.893 386.335 377.668 386.999 377.216C387.673 376.764 388.009 376.206 388.009 375.541C388.009 374.979 387.792 374.514 387.357 374.148C386.931 373.781 386.266 373.5 385.363 373.304L382.013 372.601C380.13 372.209 378.737 371.548 377.833 370.619C376.93 369.682 376.482 368.497 376.491 367.065C376.482 365.855 376.81 364.807 377.475 363.92C378.148 363.026 379.082 362.335 380.275 361.849C381.477 361.355 382.862 361.108 384.43 361.108C386.731 361.108 388.542 361.598 389.863 362.578C391.192 363.558 392.015 364.884 392.33 366.554Z" fill="#E8EDF2"/>
<g filter="url(#filter7_d_42_4)">
<path d="M422.81 363.179C422.597 362.489 422.303 361.871 421.928 361.325C421.562 360.771 421.118 360.298 420.599 359.906C420.087 359.514 419.499 359.22 418.834 359.024C418.17 358.82 417.445 358.717 416.661 358.717C415.255 358.717 414.002 359.071 412.903 359.778C411.803 360.486 410.938 361.526 410.307 362.898C409.685 364.261 409.374 365.923 409.374 367.884C409.374 369.861 409.685 371.536 410.307 372.908C410.93 374.28 411.795 375.324 412.903 376.04C414.01 376.747 415.297 377.101 416.763 377.101C418.093 377.101 419.243 376.845 420.215 376.334C421.195 375.822 421.949 375.098 422.478 374.161C423.006 373.214 423.27 372.107 423.27 370.837L424.344 371.003H417.236V367.295H427.86V370.44C427.86 372.682 427.383 374.621 426.428 376.257C425.474 377.893 424.161 379.155 422.491 380.041C420.82 380.919 418.903 381.358 416.738 381.358C414.326 381.358 412.208 380.817 410.384 379.734C408.569 378.643 407.15 377.097 406.127 375.094C405.113 373.082 404.606 370.696 404.606 367.935C404.606 365.821 404.904 363.933 405.501 362.271C406.106 360.609 406.949 359.199 408.032 358.04C409.114 356.872 410.384 355.986 411.841 355.381C413.299 354.767 414.884 354.46 416.597 354.46C418.046 354.46 419.397 354.673 420.65 355.099C421.903 355.517 423.015 356.114 423.986 356.889C424.966 357.665 425.772 358.585 426.403 359.651C427.033 360.716 427.447 361.892 427.643 363.179H422.81ZM433.292 381V361.364H437.92V381H433.292ZM435.619 358.577C434.886 358.577 434.255 358.334 433.727 357.848C433.198 357.354 432.934 356.761 432.934 356.071C432.934 355.372 433.198 354.78 433.727 354.294C434.255 353.8 434.886 353.553 435.619 353.553C436.36 353.553 436.991 353.8 437.511 354.294C438.039 354.78 438.303 355.372 438.303 356.071C438.303 356.761 438.039 357.354 437.511 357.848C436.991 358.334 436.36 358.577 435.619 358.577ZM452.304 361.364V364.943H441.016V361.364H452.304ZM443.803 356.659H448.431V375.094C448.431 375.716 448.524 376.193 448.712 376.526C448.908 376.849 449.164 377.071 449.479 377.19C449.794 377.31 450.144 377.369 450.527 377.369C450.817 377.369 451.081 377.348 451.32 377.305C451.567 377.263 451.755 377.224 451.882 377.19L452.662 380.808C452.415 380.893 452.061 380.987 451.601 381.089C451.149 381.192 450.595 381.251 449.939 381.268C448.78 381.303 447.736 381.128 446.807 380.744C445.878 380.352 445.141 379.747 444.595 378.929C444.058 378.111 443.794 377.088 443.803 375.861V356.659ZM461.044 369.494V381H456.416V354.818H460.942V364.7H461.172C461.632 363.592 462.344 362.719 463.307 362.08C464.279 361.432 465.514 361.108 467.014 361.108C468.378 361.108 469.567 361.393 470.581 361.964C471.595 362.536 472.38 363.371 472.934 364.47C473.496 365.57 473.777 366.912 473.777 368.497V381H469.149V369.213C469.149 367.892 468.809 366.865 468.127 366.132C467.453 365.391 466.507 365.02 465.289 365.02C464.47 365.02 463.738 365.199 463.09 365.557C462.451 365.906 461.948 366.413 461.581 367.078C461.223 367.743 461.044 368.548 461.044 369.494ZM478.315 381V361.364H482.942V381H478.315ZM480.641 358.577C479.908 358.577 479.278 358.334 478.749 357.848C478.221 357.354 477.957 356.761 477.957 356.071C477.957 355.372 478.221 354.78 478.749 354.294C479.278 353.8 479.908 353.553 480.641 353.553C481.383 353.553 482.013 353.8 482.533 354.294C483.062 354.78 483.326 355.372 483.326 356.071C483.326 356.761 483.062 357.354 482.533 357.848C482.013 358.334 481.383 358.577 480.641 358.577ZM492.149 369.494V381H487.521V361.364H491.945V364.7H492.175C492.626 363.601 493.347 362.727 494.335 362.08C495.332 361.432 496.564 361.108 498.03 361.108C499.385 361.108 500.565 361.398 501.571 361.977C502.585 362.557 503.369 363.396 503.923 364.496C504.486 365.595 504.763 366.929 504.754 368.497V381H500.126V369.213C500.126 367.901 499.786 366.874 499.104 366.132C498.43 365.391 497.497 365.02 496.304 365.02C495.494 365.02 494.774 365.199 494.143 365.557C493.521 365.906 493.031 366.413 492.673 367.078C492.324 367.743 492.149 368.548 492.149 369.494ZM509.279 361.364H513.907V382.125C513.907 383.54 513.638 384.707 513.101 385.628C512.564 386.548 511.789 387.234 510.775 387.686C509.76 388.138 508.529 388.364 507.08 388.364C506.91 388.364 506.752 388.359 506.607 388.351C506.462 388.351 506.304 388.347 506.134 388.338V384.567C506.262 384.575 506.377 384.58 506.479 384.58C506.581 384.588 506.688 384.592 506.799 384.592C507.685 384.592 508.32 384.375 508.704 383.94C509.087 383.514 509.279 382.888 509.279 382.061V361.364ZM511.58 358.577C510.838 358.577 510.204 358.334 509.675 357.848C509.155 357.354 508.895 356.761 508.895 356.071C508.895 355.372 509.155 354.78 509.675 354.294C510.204 353.8 510.838 353.553 511.58 353.553C512.313 353.553 512.939 353.8 513.459 354.294C513.988 354.78 514.252 355.372 514.252 356.071C514.252 356.761 513.988 357.354 513.459 357.848C512.939 358.334 512.313 358.577 511.58 358.577ZM518.486 381V361.364H523.113V381H518.486ZM520.812 358.577C520.079 358.577 519.449 358.334 518.92 357.848C518.392 357.354 518.128 356.761 518.128 356.071C518.128 355.372 518.392 354.78 518.92 354.294C519.449 353.8 520.079 353.553 520.812 353.553C521.554 353.553 522.184 353.8 522.704 354.294C523.233 354.78 523.497 355.372 523.497 356.071C523.497 356.761 523.233 357.354 522.704 357.848C522.184 358.334 521.554 358.577 520.812 358.577Z" fill="#00D2FF"/>
</g>
<path d="M302.055 439.54L302.657 437.958L294.915 434.08V432.68L300.935 429.67V430.93L296.595 433.044C296.436 433.128 296.291 433.198 296.161 433.254C296.03 433.31 295.932 433.347 295.867 433.366C295.932 433.385 296.03 433.422 296.161 433.478C296.291 433.534 296.436 433.604 296.595 433.688L303.049 436.908L307.025 426.38H308.355L307.501 428.662L315.495 432.68V434.08L309.475 437.09V435.872L313.815 433.744C313.992 433.66 314.155 433.59 314.305 433.534C314.463 433.469 314.58 433.427 314.655 433.408C314.571 433.389 314.449 433.352 314.291 433.296C314.132 433.231 313.973 433.156 313.815 433.072L307.095 429.712L303.385 439.54H302.055ZM328.924 438V427.766H334.944V428.914H330.156V432.316H334.58V433.464H330.184V438H328.924ZM340.874 438.14C339.988 438.14 339.278 437.879 338.746 437.356C338.214 436.824 337.948 436.105 337.948 435.2V430.3H339.208V435.2C339.208 435.779 339.358 436.231 339.656 436.558C339.955 436.875 340.361 437.034 340.874 437.034C341.397 437.034 341.808 436.875 342.106 436.558C342.414 436.231 342.568 435.779 342.568 435.2V430.3H343.828V435.2C343.828 436.105 343.558 436.824 343.016 437.356C342.475 437.879 341.761 438.14 340.874 438.14ZM351.033 438C350.585 438 350.193 437.911 349.857 437.734C349.521 437.557 349.26 437.305 349.073 436.978C348.886 436.651 348.793 436.269 348.793 435.83V428.928H346.203V427.78H350.053V435.83C350.053 436.147 350.142 436.399 350.319 436.586C350.496 436.763 350.734 436.852 351.033 436.852H353.483V438H351.033ZM360.127 438C359.679 438 359.287 437.911 358.951 437.734C358.615 437.557 358.354 437.305 358.167 436.978C357.981 436.651 357.887 436.269 357.887 435.83V428.928H355.297V427.78H359.147V435.83C359.147 436.147 359.236 436.399 359.413 436.586C359.591 436.763 359.829 436.852 360.127 436.852H362.577V438H360.127ZM365.932 433.94V432.82H370.412V433.94H365.932ZM377.322 438.14C376.65 438.14 376.072 438.028 375.586 437.804C375.11 437.58 374.742 437.258 374.48 436.838C374.219 436.418 374.084 435.919 374.074 435.34H375.334C375.334 435.853 375.507 436.259 375.852 436.558C376.207 436.857 376.697 437.006 377.322 437.006C377.91 437.006 378.368 436.861 378.694 436.572C379.03 436.283 379.198 435.881 379.198 435.368C379.198 434.957 379.086 434.598 378.862 434.29C378.648 433.982 378.335 433.767 377.924 433.646L376.538 433.212C375.838 432.997 375.297 432.638 374.914 432.134C374.541 431.63 374.354 431.037 374.354 430.356C374.354 429.805 374.476 429.329 374.718 428.928C374.97 428.517 375.32 428.2 375.768 427.976C376.216 427.743 376.744 427.626 377.35 427.626C378.246 427.626 378.965 427.878 379.506 428.382C380.048 428.877 380.323 429.539 380.332 430.37H379.072C379.072 429.866 378.918 429.474 378.61 429.194C378.312 428.905 377.887 428.76 377.336 428.76C376.795 428.76 376.37 428.891 376.062 429.152C375.764 429.413 375.614 429.777 375.614 430.244C375.614 430.664 375.726 431.028 375.95 431.336C376.174 431.644 376.496 431.863 376.916 431.994L378.316 432.442C378.998 432.657 379.525 433.021 379.898 433.534C380.272 434.047 380.458 434.649 380.458 435.34C380.458 435.9 380.328 436.39 380.066 436.81C379.805 437.23 379.436 437.557 378.96 437.79C378.494 438.023 377.948 438.14 377.322 438.14ZM387.201 438C386.538 438 386.02 437.823 385.647 437.468C385.283 437.113 385.101 436.614 385.101 435.97V431.448H382.931V430.3H385.101V428.13H386.361V430.3H389.441V431.448H386.361V435.97C386.361 436.558 386.641 436.852 387.201 436.852H389.301V438H387.201ZM394.784 438.14C393.972 438.14 393.332 437.935 392.866 437.524C392.399 437.104 392.166 436.539 392.166 435.83C392.166 435.111 392.399 434.547 392.866 434.136C393.332 433.725 393.962 433.52 394.756 433.52H397.136V432.75C397.136 432.274 396.991 431.91 396.702 431.658C396.422 431.397 396.02 431.266 395.498 431.266C395.04 431.266 394.658 431.364 394.35 431.56C394.042 431.747 393.864 432.003 393.818 432.33H392.558C392.642 431.667 392.954 431.14 393.496 430.748C394.037 430.356 394.714 430.16 395.526 430.16C396.412 430.16 397.112 430.389 397.626 430.846C398.139 431.303 398.396 431.924 398.396 432.708V438H397.164V436.53H396.954L397.164 436.32C397.164 436.88 396.944 437.323 396.506 437.65C396.076 437.977 395.502 438.14 394.784 438.14ZM395.092 437.146C395.689 437.146 396.179 436.997 396.562 436.698C396.944 436.399 397.136 436.017 397.136 435.55V434.458H394.784C394.364 434.458 394.032 434.575 393.79 434.808C393.547 435.041 393.426 435.359 393.426 435.76C393.426 436.189 393.57 436.53 393.86 436.782C394.158 437.025 394.569 437.146 395.092 437.146ZM404.606 438.14C403.99 438.14 403.449 438.023 402.982 437.79C402.525 437.557 402.17 437.221 401.918 436.782C401.666 436.334 401.54 435.807 401.54 435.2V433.1C401.54 432.484 401.666 431.957 401.918 431.518C402.17 431.079 402.525 430.743 402.982 430.51C403.449 430.277 403.99 430.16 404.606 430.16C405.493 430.16 406.207 430.398 406.748 430.874C407.289 431.35 407.574 431.999 407.602 432.82H406.342C406.314 432.325 406.146 431.947 405.838 431.686C405.539 431.415 405.129 431.28 404.606 431.28C404.055 431.28 403.617 431.439 403.29 431.756C402.963 432.064 402.8 432.507 402.8 433.086V435.2C402.8 435.779 402.963 436.227 403.29 436.544C403.617 436.861 404.055 437.02 404.606 437.02C405.129 437.02 405.539 436.885 405.838 436.614C406.146 436.343 406.314 435.965 406.342 435.48H407.602C407.574 436.301 407.289 436.95 406.748 437.426C406.207 437.902 405.493 438.14 404.606 438.14ZM410.775 438V427.78H412.035V433.478H413.519L415.759 430.3H417.201L414.611 433.968L417.243 438H415.773L413.533 434.57H412.035V438H410.775ZM428.922 438V427.78H431.568C432.23 427.78 432.8 427.906 433.276 428.158C433.761 428.41 434.134 428.765 434.396 429.222C434.666 429.679 434.802 430.221 434.802 430.846V434.92C434.802 435.545 434.666 436.091 434.396 436.558C434.134 437.015 433.761 437.37 433.276 437.622C432.8 437.874 432.23 438 431.568 438H428.922ZM430.182 436.88H431.568C432.184 436.88 432.664 436.707 433.01 436.362C433.364 436.017 433.542 435.536 433.542 434.92V430.846C433.542 430.239 433.364 429.763 433.01 429.418C432.664 429.073 432.184 428.9 431.568 428.9H430.182V436.88ZM440.928 438.14C440.321 438.14 439.789 438.019 439.332 437.776C438.884 437.533 438.534 437.193 438.282 436.754C438.039 436.306 437.918 435.788 437.918 435.2V433.1C437.918 432.503 438.039 431.985 438.282 431.546C438.534 431.107 438.884 430.767 439.332 430.524C439.789 430.281 440.321 430.16 440.928 430.16C441.535 430.16 442.062 430.281 442.51 430.524C442.967 430.767 443.317 431.107 443.56 431.546C443.812 431.985 443.938 432.503 443.938 433.1V434.458H439.15V435.2C439.15 435.807 439.304 436.273 439.612 436.6C439.92 436.917 440.359 437.076 440.928 437.076C441.413 437.076 441.805 436.992 442.104 436.824C442.403 436.647 442.585 436.385 442.65 436.04H443.91C443.826 436.684 443.509 437.197 442.958 437.58C442.417 437.953 441.74 438.14 440.928 438.14ZM442.706 433.618V433.1C442.706 432.493 442.552 432.027 442.244 431.7C441.945 431.373 441.507 431.21 440.928 431.21C440.359 431.21 439.92 431.373 439.612 431.7C439.304 432.027 439.15 432.493 439.15 433.1V433.506H442.804L442.706 433.618ZM449.169 438L446.593 430.3H447.881L449.589 435.48C449.691 435.788 449.785 436.087 449.869 436.376C449.953 436.656 450.013 436.875 450.051 437.034C450.097 436.875 450.163 436.656 450.247 436.376C450.331 436.087 450.419 435.788 450.513 435.48L452.179 430.3H453.453L450.877 438H449.169ZM459.117 438.14C458.511 438.14 457.979 438.019 457.521 437.776C457.073 437.533 456.723 437.193 456.471 436.754C456.229 436.306 456.107 435.788 456.107 435.2V433.1C456.107 432.503 456.229 431.985 456.471 431.546C456.723 431.107 457.073 430.767 457.521 430.524C457.979 430.281 458.511 430.16 459.117 430.16C459.724 430.16 460.251 430.281 460.699 430.524C461.157 430.767 461.507 431.107 461.749 431.546C462.001 431.985 462.127 432.503 462.127 433.1V434.458H457.339V435.2C457.339 435.807 457.493 436.273 457.801 436.6C458.109 436.917 458.548 437.076 459.117 437.076C459.603 437.076 459.995 436.992 460.293 436.824C460.592 436.647 460.774 436.385 460.839 436.04H462.099C462.015 436.684 461.698 437.197 461.147 437.58C460.606 437.953 459.929 438.14 459.117 438.14ZM460.895 433.618V433.1C460.895 432.493 460.741 432.027 460.433 431.7C460.135 431.373 459.696 431.21 459.117 431.21C458.548 431.21 458.109 431.373 457.801 431.7C457.493 432.027 457.339 432.493 457.339 433.1V433.506H460.993L460.895 433.618ZM469.262 438C468.814 438 468.422 437.911 468.086 437.734C467.75 437.557 467.488 437.305 467.302 436.978C467.115 436.651 467.022 436.269 467.022 435.83V428.928H464.432V427.78H468.282V435.83C468.282 436.147 468.37 436.399 468.548 436.586C468.725 436.763 468.963 436.852 469.262 436.852H471.712V438H469.262ZM477.306 438.112C476.69 438.112 476.158 437.995 475.71 437.762C475.262 437.529 474.912 437.193 474.66 436.754C474.418 436.306 474.296 435.779 474.296 435.172V433.128C474.296 432.512 474.418 431.985 474.66 431.546C474.912 431.107 475.262 430.771 475.71 430.538C476.158 430.305 476.69 430.188 477.306 430.188C477.922 430.188 478.454 430.305 478.902 430.538C479.35 430.771 479.696 431.107 479.938 431.546C480.19 431.985 480.316 432.507 480.316 433.114V435.172C480.316 435.779 480.19 436.306 479.938 436.754C479.696 437.193 479.35 437.529 478.902 437.762C478.454 437.995 477.922 438.112 477.306 438.112ZM477.306 436.992C477.857 436.992 478.286 436.838 478.594 436.53C478.902 436.222 479.056 435.769 479.056 435.172V433.128C479.056 432.531 478.902 432.078 478.594 431.77C478.286 431.462 477.857 431.308 477.306 431.308C476.765 431.308 476.336 431.462 476.018 431.77C475.71 432.078 475.556 432.531 475.556 433.128V435.172C475.556 435.769 475.71 436.222 476.018 436.53C476.336 436.838 476.765 436.992 477.306 436.992ZM483.489 440.52V430.3H484.749V431.77H485.001L484.749 432.064C484.749 431.476 484.94 431.014 485.323 430.678C485.715 430.333 486.228 430.16 486.863 430.16C487.637 430.16 488.253 430.417 488.711 430.93C489.177 431.434 489.411 432.129 489.411 433.016V435.27C489.411 435.858 489.303 436.367 489.089 436.796C488.883 437.225 488.589 437.557 488.207 437.79C487.833 438.023 487.385 438.14 486.863 438.14C486.237 438.14 485.729 437.967 485.337 437.622C484.945 437.277 484.749 436.815 484.749 436.236L485.001 436.53H484.721L484.749 438.28V440.52H483.489ZM486.443 437.048C486.975 437.048 487.39 436.889 487.689 436.572C487.997 436.255 488.151 435.797 488.151 435.2V433.1C488.151 432.503 487.997 432.045 487.689 431.728C487.39 431.411 486.975 431.252 486.443 431.252C485.929 431.252 485.519 431.415 485.211 431.742C484.903 432.069 484.749 432.521 484.749 433.1V435.2C484.749 435.779 484.903 436.231 485.211 436.558C485.519 436.885 485.929 437.048 486.443 437.048ZM495.495 438.14C494.889 438.14 494.357 438.019 493.899 437.776C493.451 437.533 493.101 437.193 492.849 436.754C492.607 436.306 492.485 435.788 492.485 435.2V433.1C492.485 432.503 492.607 431.985 492.849 431.546C493.101 431.107 493.451 430.767 493.899 430.524C494.357 430.281 494.889 430.16 495.495 430.16C496.102 430.16 496.629 430.281 497.077 430.524C497.535 430.767 497.885 431.107 498.127 431.546C498.379 431.985 498.505 432.503 498.505 433.1V434.458H493.717V435.2C493.717 435.807 493.871 436.273 494.179 436.6C494.487 436.917 494.926 437.076 495.495 437.076C495.981 437.076 496.373 436.992 496.671 436.824C496.97 436.647 497.152 436.385 497.217 436.04H498.477C498.393 436.684 498.076 437.197 497.525 437.58C496.984 437.953 496.307 438.14 495.495 438.14ZM497.273 433.618V433.1C497.273 432.493 497.119 432.027 496.811 431.7C496.513 431.373 496.074 431.21 495.495 431.21C494.926 431.21 494.487 431.373 494.179 431.7C493.871 432.027 493.717 432.493 493.717 433.1V433.506H497.371L497.273 433.618ZM501.944 438V430.3H503.176V431.77H503.47L503.064 432.68C503.064 431.849 503.241 431.224 503.596 430.804C503.96 430.375 504.497 430.16 505.206 430.16C506.018 430.16 506.662 430.417 507.138 430.93C507.623 431.434 507.866 432.12 507.866 432.988V433.45H506.606V433.1C506.606 432.493 506.457 432.031 506.158 431.714C505.869 431.387 505.453 431.224 504.912 431.224C504.38 431.224 503.96 431.387 503.652 431.714C503.353 432.041 503.204 432.503 503.204 433.1V438H501.944Z" fill="#5B6E8C"/>
<defs>
<filter id="filter0_d_42_4" x="273.887" y="145" width="96.1125" height="144" filterUnits="userSpaceOnUse" color-interpolation-filters="sRGB">
<feFlood flood-opacity="0" result="BackgroundImageFix"/>
<feColorMatrix in="SourceAlpha" type="matrix" values="0 0 0 0 0 0 0 0 0 0 0 0 0 0 0 0 0 0 127 0" result="hardAlpha"/>
<feOffset/>
<feGaussianBlur stdDeviation="6"/>
<feComposite in2="hardAlpha" operator="out"/>
<feColorMatrix type="matrix" values="0 0 0 0 0 0 0 0 0 0.823529 0 0 0 0 1 0 0 0 0.4 0"/>
<feBlend mode="normal" in2="BackgroundImageFix" result="effect1_dropShadow_42_4"/>
<feBlend mode="normal" in="SourceGraphic" in2="effect1_dropShadow_42_4" result="shape"/>
</filter>
<filter id="filter1_d_42_4" x="390" y="185" width="20" height="64" filterUnits="userSpaceOnUse" color-interpolation-filters="sRGB">
<feFlood flood-opacity="0" result="BackgroundImageFix"/>
<feColorMatrix in="SourceAlpha" type="matrix" values="0 0 0 0 0 0 0 0 0 0 0 0 0 0 0 0 0 0 127 0" result="hardAlpha"/>
<feOffset/>
<feGaussianBlur stdDeviation="4"/>
<feComposite in2="hardAlpha" operator="out"/>
<feColorMatrix type="matrix" values="0 0 0 0 0 0 0 0 0 1 0 0 0 0 0.666667 0 0 0 0.5 0"/>
<feBlend mode="normal" in2="BackgroundImageFix" result="effect1_dropShadow_42_4"/>
<feBlend mode="normal" in="SourceGraphic" in2="effect1_dropShadow_42_4" result="shape"/>
</filter>
<filter id="filter2_d_42_4" x="430" y="145" width="96.1125" height="144" filterUnits="userSpaceOnUse" color-interpolation-filters="sRGB">
<feFlood flood-opacity="0" result="BackgroundImageFix"/>
<feColorMatrix in="SourceAlpha" type="matrix" values="0 0 0 0 0 0 0 0 0 0 0 0 0 0 0 0 0 0 127 0" result="hardAlpha"/>
<feOffset/>
<feGaussianBlur stdDeviation="6"/>
<feComposite in2="hardAlpha" operator="out"/>
<feColorMatrix type="matrix" values="0 0 0 0 0 0 0 0 0 0.823529 0 0 0 0 1 0 0 0 0.4 0"/>
<feBlend mode="normal" in2="BackgroundImageFix" result="effect1_dropShadow_42_4"/>
<feBlend mode="normal" in="SourceGraphic" in2="effect1_dropShadow_42_4" result="shape"/>
</filter>
<filter id="filter3_d_42_4" x="324" y="297" width="28" height="28" filterUnits="userSpaceOnUse" color-interpolation-filters="sRGB">
<feFlood flood-opacity="0" result="BackgroundImageFix"/>
<feColorMatrix in="SourceAlpha" type="matrix" values="0 0 0 0 0 0 0 0 0 0 0 0 0 0 0 0 0 0 127 0" result="hardAlpha"/>
<feOffset/>
<feGaussianBlur stdDeviation="6"/>
<feComposite in2="hardAlpha" operator="out"/>
<feColorMatrix type="matrix" values="0 0 0 0 0 0 0 0 0 0.823529 0 0 0 0 1 0 0 0 0.4 0"/>
<feBlend mode="normal" in2="BackgroundImageFix" result="effect1_dropShadow_42_4"/>
<feBlend mode="normal" in="SourceGraphic" in2="effect1_dropShadow_42_4" result="shape"/>
</filter>
<filter id="filter4_d_42_4" x="328" y="298" width="144" height="26" filterUnits="userSpaceOnUse" color-interpolation-filters="sRGB">
<feFlood flood-opacity="0" result="BackgroundImageFix"/>
<feColorMatrix in="SourceAlpha" type="matrix" values="0 0 0 0 0 0 0 0 0 0 0 0 0 0 0 0 0 0 127 0" result="hardAlpha"/>
<feOffset/>
<feGaussianBlur stdDeviation="6"/>
<feComposite in2="hardAlpha" operator="out"/>
<feColorMatrix type="matrix" values="0 0 0 0 0 0 0 0 0 0.823529 0 0 0 0 1 0 0 0 0.4 0"/>
<feBlend mode="normal" in2="BackgroundImageFix" result="effect1_dropShadow_42_4"/>
<feBlend mode="normal" in="SourceGraphic" in2="effect1_dropShadow_42_4" result="shape"/>
</filter>
<filter id="filter5_d_42_4" x="448" y="297" width="28" height="28" filterUnits="userSpaceOnUse" color-interpolation-filters="sRGB">
<feFlood flood-opacity="0" result="BackgroundImageFix"/>
<feColorMatrix in="SourceAlpha" type="matrix" values="0 0 0 0 0 0 0 0 0 0 0 0 0 0 0 0 0 0 127 0" result="hardAlpha"/>
<feOffset/>
<feGaussianBlur stdDeviation="6"/>
<feComposite in2="hardAlpha" operator="out"/>
<feColorMatrix type="matrix" values="0 0 0 0 0 0 0 0 0 0.823529 0 0 0 0 1 0 0 0 0.4 0"/>
<feBlend mode="normal" in2="BackgroundImageFix" result="effect1_dropShadow_42_4"/>
<feBlend mode="normal" in="SourceGraphic" in2="effect1_dropShadow_42_4" result="shape"/>
</filter>
<filter id="filter6_f_42_4" x="100" y="0" width="600" height="600" filterUnits="userSpaceOnUse" color-interpolation-filters="sRGB">
<feFlood flood-opacity="0" result="BackgroundImageFix"/>
<feBlend mode="normal" in="SourceGraphic" in2="BackgroundImageFix" result="shape"/>
<feGaussianBlur stdDeviation="50" result="effect1_foregroundBlur_42_4"/>
</filter>
<filter id="filter7_d_42_4" x="390.509" y="333" width="147.165" height="69" filterUnits="userSpaceOnUse" color-interpolation-filters="sRGB">
<feFlood flood-opacity="0" result="BackgroundImageFix"/>
<feColorMatrix in="SourceAlpha" type="matrix" values="0 0 0 0 0 0 0 0 0 0 0 0 0 0 0 0 0 0 127 0" result="hardAlpha"/>
<feOffset/>
<feGaussianBlur stdDeviation="6"/>
<feComposite in2="hardAlpha" operator="out"/>
<feColorMatrix type="matrix" values="0 0 0 0 0 0 0 0 0 0.823529 0 0 0 0 1 0 0 0 0.4 0"/>
<feBlend mode="normal" in2="BackgroundImageFix" result="effect1_dropShadow_42_4"/>
<feBlend mode="normal" in="SourceGraphic" in2="effect1_dropShadow_42_4" result="shape"/>
</filter>
</defs>
</svg>
